<svg width="767" height="261" viewBox="0 0 767 261" fill="none" xmlns="http://www.w3.org/2000/svg">
<path d="M164.876 37.0258C160.918 43.4161 157.023 49.8455 153.084 56.2477C149.942 61.3556 146.777 66.45 143.62 71.5474C139.831 77.6652 136.049 83.7869 132.245 89.894C128.716 95.5564 125.038 101.129 121.639 106.866L148.493 161.637C148.382 161.067 148.489 160.512 148.998 159.895C151.09 157.366 153.035 154.717 155.063 152.135C160.36 145.389 165.684 138.664 170.974 131.912C175.225 126.484 178.762 120.599 181.513 114.29C183.491 109.753 185.425 105.144 186.748 100.39C188.197 95.1831 188.923 89.7739 189.96 84.4518C191.253 77.8178 191.101 71.1 190.763 64.4188C190.58 60.795 190.089 57.6551 189.461 54.0539C189.366 53.5064 189.224 52.9657 189.133 52.4171C188.832 50.6107 188.247 48.2986 187.723 46.5608C185.797 40.1802 183.351 33.9994 179.848 28.3011C178.362 25.8837 176.689 23.5813 174.949 21C171.411 26.6234 168.112 31.8045 164.876 37.0258Z" fill="url(#paint0_linear_252_430)"/>
<g opacity="0.550003">
<path d="M148.116 161.437L153.36 154.487L121.592 107.006L148.116 161.437Z" fill="black"/>
</g>
<path d="M148.556 160.6C148.681 160.436 148.828 160.272 149.048 160.1C148.829 160.272 148.678 160.436 148.556 160.6Z" fill="url(#paint1_linear_252_430)"/>
<path d="M120.623 108.651C116.322 116.053 112.271 123.606 108.289 131.186C104.119 139.124 100.96 147.417 99.1957 156.283C97.1888 166.363 98.7516 175.828 103.758 184.567C108.096 192.135 113.145 199.3 117.936 206.607C122.151 213.035 126.447 219.408 130.701 225.81C133.826 230.512 136.941 235.22 140.11 240C141.441 239.206 142.698 238.527 143.878 237.734C145.192 236.85 146.496 235.933 147.702 234.91C157.632 226.477 163.732 216.116 164.074 202.784C164.231 196.649 162.501 191.047 160.142 185.463C159.126 183.579 157.973 181.765 157.032 179.846C156.018 177.775 155.247 175.588 154.25 173.509C152.507 169.878 150.665 166.293 148.88 162.681C148.743 162.404 148.66 162.138 148.609 161.876L121.602 107.02C124.922 101.439 128.508 96.0126 131.963 90.5088C128.17 96.5498 124.204 102.488 120.623 108.651Z" fill="url(#paint2_linear_252_430)"/>
<path d="M42.3656 160.422C42.9621 161.189 43.0448 161.935 42.5913 162.808C41.5779 164.757 40.5829 166.718 39.6239 168.696C37.0894 173.923 34.6695 179.21 32.0272 184.379C29.9386 188.468 28.2455 192.733 27.7447 197.251C27.0444 203.559 27.4444 209.901 29.788 215.905C33.7007 225.931 40.0666 233.889 49.3908 239.262C51.3121 240.37 51.2762 240.341 52.5212 238.413C58.2832 229.498 64.0381 220.576 69.8547 211.698C71.7701 208.774 73.6925 205.855 75.5718 202.909L34.0606 149.701C36.8278 153.276 39.5883 156.856 42.3656 160.422Z" fill="url(#paint3_linear_252_430)"/>
<path d="M15.6731 22.4195C12.209 26.855 9.37558 31.6769 7.11298 36.8289C4.77579 42.1521 2.85643 47.6292 2.00188 53.4034C1.25219 58.4652 0.482505 63.5448 0.157656 68.6445C-0.196381 74.2184 0.0181974 79.8193 1.08409 85.3448C1.92243 89.6938 2.61916 94.0748 3.60019 98.3907C4.20988 101.075 5.06552 103.733 6.10492 106.282C8.13024 111.251 10.1637 116.234 12.5597 121.026C15.5893 127.088 19.807 132.374 24.0375 137.643C27.2542 141.648 30.4271 145.689 33.5906 149.738L75.0312 203.154C78.7949 197.309 82.6526 190.927 85.586 184.585C88.1632 179.014 90.2025 173.294 91.3489 167.193C93.1407 157.651 91.8212 148.518 87.9021 139.884C85.0693 133.643 81.3943 127.772 77.8956 121.855C74.113 115.458 70.0959 109.203 66.1864 102.883C62.3783 96.725 58.5814 90.5619 54.7722 84.4049C50.926 78.1881 47.0555 71.9864 43.2263 65.7584C40.0919 60.6609 37.0246 55.5215 33.89 50.4238C30.3258 44.6261 26.7203 38.8539 23.1323 33.0708C20.8718 29.4274 18.6108 25.7846 16.2861 22.0379C15.9407 22.2488 15.7656 22.301 15.6731 22.4195Z" fill="url(#paint4_linear_252_430)"/>
<g opacity="0.300003">
<path d="M74.9683 203.056L42.6722 161.915L39.6602 168.128L74.9683 203.056Z" fill="black"/>
</g>
<g filter="url(#filter0_d_252_430)">
<path d="M456.071 243.466C456.503 243.322 456.791 243.61 456.935 244.33C457.223 245.049 457.223 245.481 456.935 245.625C448.588 247.496 439.81 248.431 430.6 248.431C405.561 248.431 379.802 244.114 353.324 235.48C326.989 226.845 302.238 215.405 279.069 201.159C275.04 201.446 272.018 201.59 270.003 201.59C256.62 201.59 244.676 198.496 234.171 192.308C223.81 185.977 215.752 177.486 209.995 166.837C204.383 156.045 201.577 144.316 201.577 131.653C201.577 116.831 205.318 104.167 212.801 93.6622C220.284 83.0133 229.854 75.0266 241.51 69.7021C253.31 64.3777 265.326 61.7154 277.558 61.7154C291.229 61.7154 303.245 64.9533 313.606 71.429C323.967 77.7607 331.882 86.1791 337.351 96.6841C342.963 107.189 345.769 118.342 345.769 130.142C345.769 143.813 342.027 156.332 334.544 167.701C327.061 178.925 317.132 187.56 304.756 193.604L307.131 193.172C324.111 204.828 344.474 216.197 368.218 227.277C392.106 238.502 417.217 244.114 443.552 244.114C448.732 244.114 452.906 243.898 456.071 243.466ZM228.127 123.666C228.127 137.625 230.214 150.145 234.387 161.225C238.704 172.162 244.532 180.724 251.871 186.912C259.354 193.1 267.773 196.194 277.127 196.194C285.185 196.194 292.38 193.891 298.712 189.286C305.188 184.538 310.225 177.702 313.822 168.78C317.42 159.714 319.219 148.921 319.219 136.402C319.219 123.163 317.204 111.362 313.175 101.001C309.145 90.4963 303.317 82.2937 295.69 76.3937C288.063 70.4936 279.141 67.5436 268.924 67.5436C255.829 67.5436 245.756 72.5083 238.704 82.4376C231.653 92.2231 228.127 105.966 228.127 123.666ZM454.264 115.679C454.551 115.679 454.695 116.111 454.695 116.975C454.695 117.838 454.551 118.27 454.264 118.27C450.09 118.27 446.349 119.853 443.039 123.019C439.873 126.184 436.851 131.077 433.973 137.697L407.423 199C407.279 199.72 406.487 200.079 405.048 200.079C403.897 200.079 403.106 199.72 402.674 199L369.648 133.596C366.626 127.264 363.964 123.163 361.661 121.292C359.359 119.277 356.553 118.27 353.243 118.27C352.811 118.27 352.595 117.838 352.595 116.975C352.595 116.111 352.811 115.679 353.243 115.679C355.833 115.679 357.992 115.751 359.719 115.895L374.181 116.111L390.802 115.895C393.248 115.751 396.63 115.679 400.947 115.679C401.379 115.679 401.595 116.111 401.595 116.975C401.595 117.838 401.379 118.27 400.947 118.27C392.601 118.27 388.428 119.925 388.428 123.234C388.428 124.098 388.787 125.249 389.507 126.688L413.683 172.018L427.929 137.481C429.08 134.459 429.656 131.869 429.656 129.71C429.656 126.113 428.433 123.306 425.986 121.292C423.54 119.277 420.158 118.27 415.841 118.27C415.553 118.27 415.41 117.838 415.41 116.975C415.41 116.111 415.553 115.679 415.841 115.679C419.727 115.679 422.677 115.751 424.691 115.895L437.643 116.111L446.277 115.895C448.004 115.751 450.666 115.679 454.264 115.679ZM459.753 199C459.321 199 459.105 198.568 459.105 197.705C459.105 196.841 459.321 196.41 459.753 196.41C464.214 196.41 467.236 195.402 468.819 193.388C470.402 191.229 471.193 187.272 471.193 181.516V142.877C471.193 137.985 470.69 134.459 469.682 132.3C468.675 130.142 467.02 129.063 464.717 129.063C462.847 129.063 460.185 129.854 456.731 131.437H456.515C455.939 131.437 455.508 131.077 455.22 130.358C454.932 129.494 455.004 128.991 455.436 128.847L488.03 113.737L488.678 113.521C489.397 113.521 490.117 113.881 490.836 114.6C491.556 115.32 491.915 115.967 491.915 116.543V121.292C491.628 127.048 491.484 134.099 491.484 142.446V181.516C491.484 187.272 492.275 191.229 493.858 193.388C495.585 195.402 498.679 196.41 503.14 196.41C503.572 196.41 503.787 196.841 503.787 197.705C503.787 198.568 503.572 199 503.14 199C499.398 199 496.448 198.928 494.29 198.784L481.338 198.568L468.603 198.784C466.444 198.928 463.494 199 459.753 199ZM480.475 92.1512C476.302 92.1512 473.064 90.9999 470.761 88.6975C468.459 86.395 467.308 83.1572 467.308 78.9839C467.308 75.2424 468.459 72.2924 470.761 70.1338C473.208 67.8314 476.446 66.6801 480.475 66.6801C484.504 66.6801 487.598 67.7594 489.757 69.918C491.915 72.0765 492.995 75.0985 492.995 78.9839C492.995 83.1572 491.915 86.395 489.757 88.6975C487.598 90.9999 484.504 92.1512 480.475 92.1512ZM564.377 201.806C557.326 201.806 551.138 201.015 545.814 199.432V240.876C545.814 245.193 546.245 248.359 547.109 250.374C548.116 252.388 549.915 253.756 552.505 254.475C555.239 255.338 559.413 255.77 565.025 255.77C565.457 255.77 565.672 256.202 565.672 257.065C565.672 257.929 565.457 258.36 565.025 258.36C559.7 258.36 555.527 258.289 552.505 258.145L535.453 257.929L522.717 258.145C520.558 258.289 517.536 258.36 513.651 258.36C513.219 258.36 513.004 257.929 513.004 257.065C513.004 256.202 513.219 255.77 513.651 255.77C517.105 255.77 519.623 255.338 521.206 254.475C522.933 253.756 524.084 252.388 524.66 250.374C525.379 248.359 525.739 245.193 525.739 240.876V140.935C525.739 136.33 525.235 133.02 524.228 131.005C523.221 128.991 521.422 127.983 518.832 127.983C516.529 127.983 513.219 128.991 508.902 131.005H508.471C508.039 131.005 507.679 130.646 507.391 129.926C506.96 129.206 506.888 128.775 507.175 128.631L537.827 113.737C538.115 113.593 538.475 113.521 538.906 113.521C540.345 113.521 541.64 114.744 542.792 117.19C544.087 119.637 544.95 122.947 545.382 127.12C555.887 117.622 566.68 112.873 577.76 112.873C583.804 112.873 589.417 114.456 594.597 117.622C599.922 120.788 604.167 125.393 607.333 131.437C610.499 137.481 612.082 144.532 612.082 152.591C612.082 164.103 609.707 173.601 604.958 181.084C600.209 188.423 594.165 193.747 586.826 197.057C579.631 200.223 572.148 201.806 564.377 201.806ZM563.514 124.961C557.038 124.961 551.138 127.264 545.814 131.869V133.596V185.617C548.98 189.215 552.289 191.949 555.743 193.819C559.197 195.546 563.442 196.41 568.479 196.41C583.013 196.41 590.28 184.034 590.28 159.282C590.28 148.346 587.69 139.927 582.509 134.027C577.473 127.983 571.141 124.961 563.514 124.961ZM626.262 199C625.974 199 625.831 198.568 625.831 197.705C625.831 196.841 625.974 196.41 626.262 196.41C630.723 196.41 633.745 195.402 635.328 193.388C637.055 191.229 637.919 187.272 637.919 181.516L638.134 71.8607C638.134 66.824 637.631 63.2264 636.623 61.0679C635.76 58.9093 634.177 57.83 631.875 57.83C630.004 57.83 627.27 58.6215 623.672 60.2045H623.456C623.024 60.2045 622.593 59.8447 622.161 59.1252C621.873 58.2617 621.873 57.7581 622.161 57.6142L653.892 42.7201L654.755 42.5042C655.475 42.5042 656.266 42.864 657.13 43.5835C657.993 44.1591 658.425 44.7348 658.425 45.3104V181.516C658.425 187.272 659.216 191.229 660.799 193.388C662.382 195.402 665.404 196.41 669.865 196.41C670.441 196.41 670.729 196.841 670.729 197.705C670.729 198.568 670.441 199 669.865 199C666.268 199 663.39 198.928 661.231 198.784L648.064 198.568L635.112 198.784C632.954 198.928 630.004 199 626.262 199ZM760.218 184.753C760.506 184.753 760.794 185.041 761.081 185.617C761.513 186.193 761.585 186.624 761.297 186.912C755.973 192.093 750.576 195.834 745.108 198.137C739.64 200.439 733.668 201.59 727.192 201.59C718.126 201.59 710.283 199.72 703.664 195.978C697.044 192.093 692.007 186.984 688.554 180.652C685.1 174.177 683.373 167.269 683.373 159.93C683.373 151.584 685.532 143.885 689.849 136.833C694.166 129.638 700.066 124.026 707.549 119.997C715.032 115.823 723.378 113.737 732.588 113.737C741.51 113.737 748.346 115.679 753.095 119.565C757.843 123.306 760.218 128.487 760.218 135.107C760.218 139.28 759.426 141.366 757.843 141.366H744.676L705.822 141.798C705.39 144.532 705.175 147.554 705.175 150.864C705.175 163.24 708.053 173.025 713.809 180.221C719.709 187.416 727.768 191.013 737.985 191.013C741.582 191.013 745.324 190.51 749.209 189.502C753.095 188.495 756.62 186.984 759.786 184.969L760.218 184.753ZM724.602 118.054C720.285 118.054 716.543 119.781 713.377 123.234C710.211 126.688 707.909 131.437 706.47 137.481L737.121 136.833C736.69 124.314 732.516 118.054 724.602 118.054Z" fill="#0942A6"/>
</g>
<defs>
<filter id="filter0_d_252_430" x="201.577" y="42.5042" width="560.151" height="215.856" filterUnits="userSpaceOnUse" color-interpolation-filters="sRGB">
<feFlood flood-opacity="0" result="BackgroundImageFix"/>
<feColorMatrix in="SourceAlpha" type="matrix" values="0 0 0 0 0 0 0 0 0 0 0 0 0 0 0 0 0 0 127 0" result="hardAlpha"/>
<feOffset/>
<feComposite in2="hardAlpha" operator="out"/>
<feColorMatrix type="matrix" values="0 0 0 0 0 0 0 0 0 0 0 0 0 0 0 0 0 0 0.25 0"/>
<feBlend mode="normal" in2="BackgroundImageFix" result="effect1_dropShadow_252_430"/>
<feBlend mode="normal" in="SourceGraphic" in2="effect1_dropShadow_252_430" result="shape"/>
</filter>
<linearGradient id="paint0_linear_252_430" x1="131.295" y1="144.184" x2="201.565" y2="30.6695" gradientUnits="userSpaceOnUse">
<stop stop-color="#1085E2"/>
<stop offset="1" stop-color="#01C5F9"/>
</linearGradient>
<linearGradient id="paint1_linear_252_430" x1="117.067" y1="122.946" x2="150.906" y2="223.055" gradientUnits="userSpaceOnUse">
<stop stop-color="#05369C"/>
<stop offset="1" stop-color="#229AF1"/>
</linearGradient>
<linearGradient id="paint2_linear_252_430" x1="112.764" y1="127.536" x2="163.071" y2="221.663" gradientUnits="userSpaceOnUse">
<stop stop-color="#05369C"/>
<stop offset="1" stop-color="#229AF1"/>
</linearGradient>
<linearGradient id="paint3_linear_252_430" x1="58.1593" y1="169.667" x2="26.8631" y2="229.997" gradientUnits="userSpaceOnUse">
<stop stop-color="#05369C"/>
<stop offset="1" stop-color="#229AF1"/>
</linearGradient>
<linearGradient id="paint4_linear_252_430" x1="-15.7061" y1="32.7971" x2="105.22" y2="189.913" gradientUnits="userSpaceOnUse">
<stop stop-color="#1085E2"/>
<stop offset="1" stop-color="#01C5F9"/>
</linearGradient>
</defs>
</svg>
