<svg width="243" height="73" viewBox="0 0 243 73" fill="none" xmlns="http://www.w3.org/2000/svg">
<g clip-path="url(#clip0_10667_30376)">
<path d="M235.14 0.617188H7.39578C3.65638 0.617188 0.625 3.64853 0.625 7.38789V65.2466C0.625 68.986 3.65638 72.0173 7.39578 72.0173H235.14C238.88 72.0173 241.911 68.986 241.911 65.2466V7.38789C241.911 3.64853 238.88 0.617188 235.14 0.617188Z" fill="black" stroke="#A8A8A8" style="fill:black;fill-opacity:1;stroke:#A8A8A8;stroke:color(display-p3 0.6588 0.6588 0.6588);stroke-opacity:1;" stroke-width="1.23104"/>
<path d="M43.2305 34.2656L46.6564 57.4462L51.7437 50.6054L57.3091 58.3111L60.2164 56.2191L54.8571 48.7937L62.9127 47.6032L43.2305 34.2656Z" fill="#66FF91" style="fill:#66FF91;fill:color(display-p3 0.4000 1.0000 0.5686);fill-opacity:1;"/>
<path d="M61.2975 31.8233C61.2655 31.6067 61.2065 31.3987 61.1568 31.1895C61.1404 31.0789 61.1234 30.9637 61.0793 30.8572C61.0162 30.5887 60.9384 30.3176 60.8666 30.0551L60.8475 29.926C60.7685 29.6459 60.6802 29.3669 60.5873 29.0887L60.579 29.0334C59.0401 24.4679 56.0448 20.534 52.0534 17.8358C48.062 15.1376 43.2951 13.8245 38.4849 14.098L38.4435 14.1042C38.1398 14.1208 37.8368 14.1419 37.5122 14.1758C37.1876 14.2097 36.8492 14.2456 36.5081 14.2959C36.1671 14.3464 35.8261 14.3968 35.4937 14.4741C35.1614 14.5515 34.8954 14.6003 34.5816 14.6749L34.5584 14.6783C29.8816 15.811 25.7051 18.4461 22.6691 22.1796C19.6332 25.9132 17.9053 30.5393 17.7503 35.3489L17.7584 35.4043C17.751 35.6942 17.7486 35.985 17.7508 36.2766L17.7699 36.4056C17.7732 36.683 17.7811 36.9596 17.7983 37.235C17.8146 37.3455 17.8317 37.4607 17.8203 37.5755C17.8516 37.7874 17.8514 38.0088 17.869 38.2227C17.9193 38.5639 17.9427 38.9136 17.9938 39.2591C18.0449 39.6048 18.0954 39.9458 18.1727 40.2782C18.206 40.504 18.2684 40.7349 18.3182 40.9442C18.3332 41.0456 18.3482 41.1469 18.3863 41.2449C18.4554 41.5219 18.5292 41.7983 18.6076 42.074L18.6219 42.1708C18.7083 42.4688 18.7987 42.7616 18.901 43.0713C20.3369 47.3074 23.0299 51.0052 26.6211 53.6716C30.2123 56.3379 34.5311 57.8462 39.0014 57.9953L39.2045 58.0312L39.8272 58.038L40.279 58.0043L40.8599 57.9843L41.4283 57.9427L41.894 57.9069C42.2439 57.874 42.5939 57.8317 42.9442 57.7798L43.0087 57.7704L42.2595 52.7011L42.195 52.7106C41.2385 52.8508 40.2719 52.9085 39.3055 52.8833C38.0129 50.2034 36.9899 47.4016 36.2516 44.5192C37.7677 44.3894 39.3189 44.2119 40.9043 43.9776L40.9688 43.9681L40.5452 41.1016L40.4714 41.1125C38.734 41.3693 37.0938 41.5505 35.5487 41.6752C35.2212 40.1601 34.9124 38.5482 34.655 36.8062C34.3974 35.0643 34.2162 33.424 34.0915 31.879C35.6066 31.5515 37.2291 31.2505 38.9665 30.9937C40.704 30.7369 42.3395 30.5565 43.88 30.4324C43.8929 30.5199 43.9052 30.6029 43.9181 30.6904C44.3937 30.784 44.8457 30.9718 45.2476 31.2426L47.273 32.6151C47.1314 31.8167 46.9741 31.0394 46.8129 30.2673C49.7958 30.135 52.7845 30.3006 55.7345 30.7618C56.0382 31.6795 56.2625 32.6215 56.4049 33.5777C56.5435 34.5314 56.5993 35.4953 56.5717 36.4585C55.9223 36.7806 55.2158 37.1298 54.4313 37.4295L56.368 38.7443L60.9315 41.8372C61.3814 40.1789 61.6367 38.4739 61.6923 36.7566C61.6861 36.7151 61.68 36.6736 61.6732 36.6276C61.6774 36.4009 61.6788 36.1558 61.6811 35.9483C61.6635 35.8285 61.678 35.7039 61.674 35.582C61.6703 35.3659 61.6621 35.1506 61.6531 34.9306C61.6441 34.7105 61.6317 34.5946 61.621 34.4267C61.6104 34.2588 61.5976 34.077 61.5816 33.9051C61.5299 33.5549 61.5058 33.2005 61.4533 32.8457C61.4009 32.4908 61.3649 32.1524 61.2975 31.8233ZM23.0369 38.5232C22.8952 37.5624 22.8367 36.591 22.8621 35.6201C25.5415 34.3255 28.3432 33.3009 31.2256 32.5616C31.3555 34.0776 31.5291 35.6341 31.7633 37.2194C31.9976 38.8048 32.2764 40.3411 32.592 41.8062C29.6218 41.9438 26.6455 41.7859 23.7066 41.3346C23.4034 40.4183 23.1793 39.4778 23.0369 38.5232ZM25.1253 44.4966C27.8315 44.7839 30.5558 44.8631 33.2741 44.7332C33.9365 47.3728 34.8002 49.9577 35.8578 52.4652C33.6222 51.9337 31.518 50.9533 29.673 49.5834C27.8279 48.2136 26.2807 46.4829 25.1253 44.4966ZM31.0433 29.6077C28.4037 30.2696 25.8187 31.1334 23.3113 32.1914C23.8428 29.9557 24.8233 27.8515 26.1931 26.0066C27.563 24.1616 29.2937 22.6143 31.28 21.4589C30.9929 24.165 30.9138 26.8893 31.0433 29.6077ZM38.548 28.0982C36.9627 28.3326 35.4263 28.6114 33.9376 28.9256C33.8107 25.9529 33.9795 22.975 34.4414 20.0357C36.2767 19.4259 38.2043 19.1411 40.1376 19.1939C41.4252 21.8751 42.4436 24.6775 43.1776 27.56C41.6801 27.6872 40.1287 27.8647 38.548 28.0982ZM46.1638 27.373C45.5027 24.7334 44.6405 22.1484 43.5847 19.6404C45.8216 20.1717 47.927 21.1525 49.7731 22.523C51.6191 23.8936 53.1669 25.6253 54.3226 27.6129C51.613 27.3247 48.8855 27.2445 46.1638 27.373Z" fill="#66FF91" style="fill:#66FF91;fill:color(display-p3 0.4000 1.0000 0.5686);fill-opacity:1;"/>
<path d="M83.56 26.208C83.56 26.4747 83.704 26.688 83.992 26.848C84.2907 26.9973 84.648 27.1307 85.064 27.248C85.4907 27.3547 85.9173 27.4827 86.344 27.632C86.7707 27.7813 87.128 28.0373 87.416 28.4C87.7147 28.752 87.864 29.2 87.864 29.744C87.864 30.512 87.5653 31.1147 86.968 31.552C86.3813 31.9893 85.64 32.208 84.744 32.208C83.9547 32.208 83.2773 32.0427 82.712 31.712C82.1467 31.3813 81.736 30.9227 81.48 30.336L82.968 29.472C83.2453 30.24 83.8373 30.624 84.744 30.624C85.6507 30.624 86.104 30.3253 86.104 29.728C86.104 29.472 85.9547 29.264 85.656 29.104C85.368 28.944 85.0107 28.8107 84.584 28.704C84.168 28.5867 83.7467 28.4533 83.32 28.304C82.8933 28.1547 82.5307 27.9093 82.232 27.568C81.944 27.216 81.8 26.7733 81.8 26.24C81.8 25.504 82.0773 24.912 82.632 24.464C83.1973 24.016 83.896 23.792 84.728 23.792C85.3893 23.792 85.976 23.9413 86.488 24.24C87.0107 24.528 87.4107 24.9333 87.688 25.456L86.232 26.272C85.9547 25.664 85.4533 25.36 84.728 25.36C84.3973 25.36 84.12 25.4347 83.896 25.584C83.672 25.7227 83.56 25.9307 83.56 26.208ZM90.9213 22.48C90.7079 22.6933 90.4519 22.8 90.1533 22.8C89.8546 22.8 89.5933 22.6933 89.3693 22.48C89.1559 22.256 89.0493 21.9947 89.0493 21.696C89.0493 21.3973 89.1559 21.1413 89.3693 20.928C89.5826 20.704 89.8439 20.592 90.1533 20.592C90.4626 20.592 90.7239 20.704 90.9373 20.928C91.1506 21.1413 91.2573 21.3973 91.2573 21.696C91.2573 21.9947 91.1453 22.256 90.9213 22.48ZM89.2893 32V24H91.0173V32H89.2893ZM99.3916 24H101.088V31.632C101.088 32.848 100.688 33.7813 99.8876 34.432C99.0876 35.0827 98.117 35.408 96.9756 35.408C95.1303 35.408 93.8663 34.7627 93.1836 33.472L94.6716 32.608C95.0876 33.4293 95.8663 33.84 97.0076 33.84C97.7543 33.84 98.3356 33.6427 98.7516 33.248C99.1783 32.864 99.3916 32.3253 99.3916 31.632V30.656C98.741 31.584 97.813 32.048 96.6076 32.048C95.477 32.048 94.5223 31.648 93.7436 30.848C92.965 30.0373 92.5756 29.0613 92.5756 27.92C92.5756 26.7787 92.965 25.808 93.7436 25.008C94.5223 24.1973 95.477 23.792 96.6076 23.792C97.813 23.792 98.741 24.256 99.3916 25.184V24ZM95.0236 29.712C95.5143 30.192 96.1223 30.432 96.8476 30.432C97.573 30.432 98.1756 30.192 98.6556 29.712C99.1463 29.232 99.3916 28.6347 99.3916 27.92C99.3916 27.2053 99.1463 26.608 98.6556 26.128C98.1756 25.648 97.573 25.408 96.8476 25.408C96.1223 25.408 95.5143 25.648 95.0236 26.128C94.5436 26.608 94.3036 27.2053 94.3036 27.92C94.3036 28.6347 94.5436 29.232 95.0236 29.712ZM107.31 23.792C108.227 23.792 108.968 24.0853 109.534 24.672C110.099 25.2587 110.382 26.064 110.382 27.088V32H108.654V27.264C108.654 26.6667 108.494 26.208 108.174 25.888C107.854 25.568 107.416 25.408 106.862 25.408C106.254 25.408 105.763 25.6 105.39 25.984C105.016 26.3573 104.83 26.9333 104.83 27.712V32H103.102V24H104.83V25.024C105.352 24.2027 106.179 23.792 107.31 23.792ZM117.634 24H119.362V32H117.634V30.976C117.112 31.7973 116.285 32.208 115.154 32.208C114.237 32.208 113.496 31.9147 112.93 31.328C112.365 30.7413 112.082 29.936 112.082 28.912V24H113.81V28.736C113.81 29.3333 113.97 29.792 114.29 30.112C114.61 30.432 115.048 30.592 115.602 30.592C116.21 30.592 116.701 30.4053 117.074 30.032C117.448 29.648 117.634 29.0667 117.634 28.288V24ZM125.911 23.792C127.01 23.792 127.948 24.2027 128.727 25.024C129.506 25.8347 129.895 26.8267 129.895 28C129.895 29.184 129.506 30.1813 128.727 30.992C127.948 31.8027 127.01 32.208 125.911 32.208C124.695 32.208 123.762 31.76 123.111 30.864V35.2H121.383V24H123.111V25.152C123.762 24.2453 124.695 23.792 125.911 23.792ZM123.831 29.84C124.311 30.32 124.914 30.56 125.639 30.56C126.364 30.56 126.967 30.32 127.447 29.84C127.927 29.3493 128.167 28.736 128.167 28C128.167 27.264 127.927 26.656 127.447 26.176C126.967 25.6853 126.364 25.44 125.639 25.44C124.914 25.44 124.311 25.6853 123.831 26.176C123.351 26.656 123.111 27.264 123.111 28C123.111 28.736 123.351 29.3493 123.831 29.84ZM85.784 50.208C84.6107 50.208 83.6133 49.8027 82.792 48.992C81.9707 48.1813 81.56 47.184 81.56 46C81.56 44.816 81.9707 43.8187 82.792 43.008C83.6133 42.1973 84.6107 41.792 85.784 41.792C86.968 41.792 87.9653 42.1973 88.776 43.008C89.5973 43.8187 90.008 44.816 90.008 46C90.008 47.184 89.5973 48.1813 88.776 48.992C87.9653 49.8027 86.968 50.208 85.784 50.208ZM84.008 47.808C84.488 48.288 85.08 48.528 85.784 48.528C86.488 48.528 87.08 48.288 87.56 47.808C88.04 47.328 88.28 46.7253 88.28 46C88.28 45.2747 88.04 44.672 87.56 44.192C87.08 43.712 86.488 43.472 85.784 43.472C85.08 43.472 84.488 43.712 84.008 44.192C83.528 44.672 83.288 45.2747 83.288 46C83.288 46.7253 83.528 47.328 84.008 47.808ZM95.7785 41.792C96.6958 41.792 97.4372 42.0853 98.0025 42.672C98.5678 43.2587 98.8505 44.064 98.8505 45.088V50H97.1225V45.264C97.1225 44.6667 96.9625 44.208 96.6425 43.888C96.3225 43.568 95.8852 43.408 95.3305 43.408C94.7225 43.408 94.2318 43.6 93.8585 43.984C93.4852 44.3573 93.2985 44.9333 93.2985 45.712V50H91.5705V42H93.2985V43.024C93.8212 42.2027 94.6478 41.792 95.7785 41.792ZM109.175 43.664H107.191V47.504C107.191 47.8347 107.266 48.0747 107.415 48.224C107.564 48.3627 107.783 48.4427 108.071 48.464C108.37 48.4747 108.738 48.4693 109.175 48.448V50C107.852 50.16 106.903 50.048 106.327 49.664C105.751 49.2693 105.463 48.5493 105.463 47.504V43.664H103.991V42H105.463V40.272L107.191 39.76V42H109.175V43.664ZM114.95 41.792C115.868 41.792 116.609 42.0853 117.174 42.672C117.74 43.2587 118.022 44.064 118.022 45.088V50H116.294V45.264C116.294 44.6667 116.134 44.208 115.814 43.888C115.494 43.568 115.057 43.408 114.502 43.408C113.894 43.408 113.404 43.6 113.03 43.984C112.657 44.3573 112.47 44.9333 112.47 45.712V50H110.742V38.8H112.47V43.024C112.993 42.2027 113.82 41.792 114.95 41.792ZM121.243 46.736C121.371 47.344 121.664 47.8133 122.123 48.144C122.582 48.464 123.142 48.624 123.803 48.624C124.72 48.624 125.408 48.2933 125.867 47.632L127.291 48.464C126.502 49.6267 125.334 50.208 123.787 50.208C122.486 50.208 121.435 49.8133 120.635 49.024C119.835 48.224 119.435 47.216 119.435 46C119.435 44.8053 119.83 43.808 120.619 43.008C121.408 42.1973 122.422 41.792 123.659 41.792C124.832 41.792 125.792 42.2027 126.539 43.024C127.296 43.8453 127.675 44.8427 127.675 46.016C127.675 46.1973 127.654 46.4373 127.611 46.736H121.243ZM121.227 45.328H125.931C125.814 44.6773 125.542 44.1867 125.115 43.856C124.699 43.5253 124.208 43.36 123.643 43.36C123.003 43.36 122.47 43.536 122.043 43.888C121.616 44.24 121.344 44.72 121.227 45.328Z" fill="white" style="fill:white;fill-opacity:1;"/>
<path d="M172.56 27H177.12L170.84 47H166.6L162.44 33.52L158.24 47H154L147.72 27H152.28L156.16 40.8L160.36 27H164.48L168.64 40.8L172.56 27ZM182.92 38.84C183.24 40.36 183.973 41.5333 185.12 42.36C186.267 43.16 187.667 43.56 189.32 43.56C191.613 43.56 193.333 42.7333 194.48 41.08L198.04 43.16C196.067 46.0667 193.147 47.52 189.28 47.52C186.027 47.52 183.4 46.5333 181.4 44.56C179.4 42.56 178.4 40.04 178.4 37C178.4 34.0133 179.387 31.52 181.36 29.52C183.333 27.4933 185.867 26.48 188.96 26.48C191.893 26.48 194.293 27.5067 196.16 29.56C198.053 31.6133 199 34.1067 199 37.04C199 37.4933 198.947 38.0933 198.84 38.84H182.92ZM182.88 35.32H194.64C194.347 33.6933 193.667 32.4667 192.6 31.64C191.56 30.8133 190.333 30.4 188.92 30.4C187.32 30.4 185.987 30.84 184.92 31.72C183.853 32.6 183.173 33.8 182.88 35.32ZM214.121 26.48C216.868 26.48 219.215 27.4933 221.161 29.52C223.108 31.5467 224.081 34.04 224.081 37C224.081 39.9333 223.108 42.4267 221.161 44.48C219.215 46.5067 216.868 47.52 214.121 47.52C211.081 47.52 208.748 46.3867 207.121 44.12V47H202.801V19H207.121V29.84C208.748 27.6 211.081 26.48 214.121 26.48ZM208.921 41.6C210.121 42.8 211.628 43.4 213.441 43.4C215.255 43.4 216.761 42.8 217.961 41.6C219.161 40.3733 219.761 38.84 219.761 37C219.761 35.16 219.161 33.64 217.961 32.44C216.761 31.2133 215.255 30.6 213.441 30.6C211.628 30.6 210.121 31.2133 208.921 32.44C207.721 33.64 207.121 35.16 207.121 37C207.121 38.84 207.721 40.3733 208.921 41.6Z" fill="white" style="fill:white;fill-opacity:1;"/>
</g>
<defs>
<clipPath id="clip0_10667_30376">
<rect width="242.517" height="72.6311" fill="white" style="fill:white;fill-opacity:1;"/>
</clipPath>
</defs>
</svg>
